<?xml version="1.0" standalone="no"?>
<!DOCTYPE svg PUBLIC "-//W3C//DTD SVG 20010904//EN"
 "http://www.w3.org/TR/2001/REC-SVG-20010904/DTD/svg10.dtd">
<svg version="1.0" xmlns="http://www.w3.org/2000/svg"
 width="1024.000000pt" height="1024.000000pt" viewBox="0 0 1024.000000 1024.000000"
 preserveAspectRatio="xMidYMid meet">
<metadata>
Created by potrace 1.14, written by Peter Selinger 2001-2017
</metadata>
<g transform="translate(0.000000,1024.000000) scale(0.100000,-0.100000)"
fill="#000000" stroke="none">
<path d="M0 5120 l0 -5120 5120 0 5120 0 0 5120 0 5120 -5120 0 -5120 0 0
-5120z m2675 2109 c61 -54 64 -139 6 -191 -59 -53 -134 -49 -188 9 -78 82 -12
212 109 213 28 0 46 -8 73 -31z m2622 10 c32 -11 78 -61 108 -119 25 -47 24
-115 -3 -166 -22 -44 -58 -82 -46 -49 6 15 3 17 -14 13 -12 -4 -25 -2 -28 4
-3 5 -15 8 -25 5 -20 -5 -43 15 -31 28 4 5 1 5 -5 1 -7 -4 -13 -3 -13 3 0 6
-6 8 -14 5 -8 -3 -17 -1 -21 5 -3 6 -13 11 -20 11 -8 0 -35 21 -60 46 -40 42
-50 46 -46 22 0 -5 -5 -8 -13 -8 -18 0 -25 37 -12 70 12 30 65 90 80 90 6 0
34 11 61 25 58 28 62 29 102 14z m1211 -52 c109 -39 179 -83 258 -161 85 -86
146 -185 173 -286 23 -82 28 -201 11 -262 l-11 -38 -65 70 c-160 169 -364 283
-584 324 -165 32 -410 16 -582 -37 -30 -10 -48 -11 -48 -5 0 6 15 40 33 77 45
91 177 225 272 273 118 61 200 79 345 74 103 -3 138 -8 198 -29z m1254 12 c70
-15 101 -32 173 -93 83 -71 92 -82 131 -164 76 -159 46 -381 -68 -503 -18 -19
-27 -28 -20 -19 18 25 16 46 -3 30 -11 -9 -15 -10 -15 -1 0 8 -7 6 -17 -5 -16
-15 -17 -15 -23 2 -6 17 -7 17 -13 0 -4 -10 -5 -21 -3 -25 3 -4 -4 -8 -15 -8
-21 -2 -26 13 -6 20 8 4 7 6 -3 6 -9 1 -21 -4 -28 -11 -7 -7 -12 -8 -12 -2 0
6 5 15 10 20 7 7 6 11 -5 11 -8 0 -17 -9 -21 -19 -3 -10 -10 -18 -15 -18 -12
0 -12 27 1 35 16 10 12 25 -7 25 -15 0 -16 -2 -3 -10 13 -9 7 -14 -12 -11 -5
0 -8 -5 -8 -13 0 -8 -5 -18 -12 -22 -7 -5 -9 -2 -5 8 3 10 0 15 -11 14 -10 -1
-16 6 -16 17 1 9 -2 17 -7 17 -5 0 -9 -8 -9 -17 -1 -16 -2 -16 -13 -3 -7 9
-21 14 -32 12 l-20 -5 20 -9 c16 -7 15 -7 -7 -3 -15 3 -30 1 -33 -5 -10 -17
-24 -11 -20 8 2 12 -3 18 -17 19 -17 2 -18 0 -6 -15 7 -9 -6 -1 -29 18 -26 20
-43 42 -43 54 -1 19 -1 20 -11 3 -13 -22 -29 -14 -22 11 2 10 -3 24 -11 31
-11 9 -16 10 -16 2 0 -6 5 -11 10 -11 6 0 10 -4 10 -10 0 -5 -7 -7 -15 -4 -8
4 -15 17 -15 31 0 16 -7 27 -20 30 -11 3 -17 9 -14 14 3 5 -1 12 -10 15 -9 3
-12 12 -9 22 6 15 4 15 -14 -1 -16 -14 -23 -15 -29 -6 -4 7 -3 10 3 6 6 -4 15
5 22 20 10 22 10 24 -1 16 -8 -6 -21 -7 -33 -2 -11 4 -16 8 -12 8 4 1 3 11 -4
22 -6 12 -7 19 -2 16 4 -3 9 6 9 19 1 13 -2 22 -6 19 -5 -3 -11 -1 -15 4 -4 7
-15 7 -30 1 -20 -8 -25 -6 -25 6 0 8 3 13 8 11 4 -3 12 1 19 8 10 10 9 14 -2
19 -7 2 -16 0 -19 -7 -4 -7 -4 1 -1 16 3 16 2 26 -3 23 -4 -2 -13 4 -20 14 -9
15 -7 23 9 44 11 13 18 28 17 33 -5 17 55 103 103 148 97 90 242 125 391 94z
m-2725 -191 c-3 -7 -5 -2 -5 12 0 14 2 19 5 13 2 -7 2 -19 0 -25z m-709 6
c252 -51 454 -227 539 -469 25 -73 28 -93 28 -220 0 -153 -12 -209 -65 -317
-35 -71 -89 -140 -103 -131 -6 3 -7 1 -4 -4 4 -6 -3 -21 -14 -34 l-21 -24 6
23 c5 14 3 22 -4 22 -6 0 -9 -4 -5 -9 3 -5 -1 -16 -9 -24 -8 -8 -12 -17 -9
-21 4 -3 2 -6 -4 -6 -6 0 -16 6 -22 14 -7 8 -22 12 -34 10 -14 -3 -12 0 7 7
22 9 25 14 15 21 -11 8 -11 9 1 5 8 -2 14 -11 12 -21 -2 -9 2 -16 8 -16 5 0
10 9 10 19 0 26 -31 36 -47 16 -6 -10 -16 -14 -21 -11 -10 6 -27 -21 -23 -37
1 -4 -7 -3 -18 2 -10 6 -29 8 -41 6 -13 -3 -29 0 -36 6 -16 13 -37 2 -28 -13
5 -7 2 -8 -5 -4 -9 6 -8 13 6 28 18 20 17 21 -6 13 -14 -4 -21 -3 -18 2 3 5
-13 8 -38 7 -25 -1 -47 2 -50 7 -4 5 1 9 9 9 9 0 16 4 16 9 0 6 -9 9 -19 8
-11 0 -18 -4 -15 -8 9 -15 -25 -30 -44 -20 -11 6 -23 7 -27 3 -5 -4 -5 -2 -2
4 14 25 15 61 1 61 -10 0 -11 -4 -2 -14 8 -10 7 -12 -5 -8 -8 4 -18 2 -22 -4
-3 -6 -11 -11 -17 -11 -7 0 -6 6 2 15 14 17 7 19 -20 5 -13 -7 -21 -7 -26 2
-4 6 -3 8 3 5 6 -4 17 1 24 10 12 14 11 15 -9 9 -13 -5 -22 -3 -22 3 0 6 -7
11 -16 11 -8 0 -12 5 -9 10 3 6 -1 10 -10 10 -10 0 -13 5 -9 12 4 7 3 8 -5 4
-8 -6 -9 -12 -2 -20 6 -7 7 -17 3 -21 -4 -5 -1 -5 6 -1 6 4 12 2 12 -4 0 -6 5
-8 10 -5 6 3 10 2 10 -3 0 -18 -13 -21 -27 -7 -17 18 -37 20 -27 3 4 -7 3 -8
-5 -4 -9 6 -9 11 -1 21 9 11 6 12 -12 8 -22 -5 -22 -5 -4 9 18 14 18 15 -3 21
-14 3 -21 1 -21 -8 0 -8 -6 -17 -12 -21 -7 -4 -10 -4 -6 1 4 4 3 16 -3 26 -7
14 -6 19 3 19 11 0 11 2 0 8 -8 5 -10 16 -6 27 5 13 4 16 -5 11 -7 -5 -11 -17
-8 -27 3 -12 0 -19 -9 -19 -8 0 -11 6 -8 15 4 10 2 13 -8 10 -9 -4 -14 2 -15
15 -1 12 2 18 9 14 7 -4 8 -2 4 5 -5 7 -12 9 -19 3 -15 -11 -47 -12 -47 0 0 4
-7 8 -15 8 -9 0 -15 10 -16 23 -1 16 -2 18 -6 5 -4 -14 -8 -16 -24 -8 -10 6
-19 18 -19 26 0 9 -6 14 -12 11 -7 -2 -12 -10 -10 -16 1 -7 -2 -10 -8 -6 -6 3
-8 11 -5 16 4 5 0 9 -7 10 -10 0 -10 2 0 6 6 2 12 12 11 21 0 11 -2 12 -6 5
-10 -25 -22 -13 -13 13 13 34 12 44 -3 18 -9 -16 -17 -19 -32 -13 -11 4 -14 8
-7 8 7 1 10 6 7 11 -4 6 -11 8 -16 5 -5 -3 -6 1 -3 10 5 12 10 13 17 6 14 -14
27 -14 27 -1 0 6 -3 9 -7 8 -18 -5 -74 34 -69 48 3 8 -1 14 -9 14 -9 0 -12 -6
-9 -17 5 -14 4 -15 -4 -4 -5 7 -16 10 -23 7 -8 -4 -6 -1 3 6 17 14 9 46 -8 35
-5 -3 -15 1 -21 9 -9 9 -9 15 -2 19 7 5 4 14 -8 28 -14 15 -14 19 -3 15 11 -4
15 2 14 21 -1 36 -14 62 -26 55 -7 -4 -4 -10 6 -16 20 -11 21 -29 1 -22 -13 5
-24 26 -25 49 -1 6 -12 16 -26 23 -18 10 -24 18 -19 30 4 9 8 28 10 42 1 13 7
26 12 27 6 2 8 15 5 28 -6 36 48 123 129 204 162 160 401 231 627 185z m-1008
-39 c34 -18 63 -66 58 -98 -4 -31 -57 -36 -83 -7 -13 14 -30 20 -61 20 -38 0
-45 4 -58 28 -8 16 -11 33 -8 38 23 35 103 44 152 19z m1755 -44 c-6 -5 -25
10 -25 20 0 5 6 4 14 -3 8 -7 12 -15 11 -17z m40 -21 c3 -5 2 -10 -4 -10 -5 0
-13 5 -16 10 -3 6 -2 10 4 10 5 0 13 -4 16 -10z m3521 -56 c74 -35 102 -146
54 -213 -42 -59 -127 -78 -187 -41 -90 54 -87 201 5 249 46 25 84 26 128 5z
m-1318 -89 c-3 -3 -9 2 -12 12 -6 14 -5 15 5 6 7 -7 10 -15 7 -18z m-5451 -86
c51 -24 94 -82 118 -158 15 -43 16 -61 6 -108 -18 -90 -86 -175 -122 -152 -12
8 -12 10 1 19 13 8 13 10 -2 10 -9 0 -20 -5 -23 -10 -5 -8 -12 -7 -22 2 -9 7
-25 11 -36 10 -15 -3 -18 0 -13 13 5 14 2 16 -14 12 -17 -4 -19 -3 -9 9 9 11
7 14 -15 14 -14 0 -26 5 -26 11 0 5 -4 7 -10 4 -18 -11 -32 5 -19 21 10 12 9
13 -4 9 -21 -9 -77 22 -77 41 0 8 -4 13 -9 10 -15 -9 -22 25 -9 41 10 12 9 14
-8 11 -14 -2 -20 4 -22 21 -2 15 0 21 7 17 6 -4 11 0 11 8 0 18 -11 21 -26 6
-7 -7 -11 -6 -11 4 0 26 71 110 112 133 55 31 160 32 222 2z m891 -34 c48 -20
92 -66 92 -99 0 -30 -27 -66 -51 -66 -11 0 -37 9 -59 20 -49 25 -157 27 -205
4 -44 -21 -73 -15 -98 18 -36 48 -1 100 89 134 50 18 173 13 232 -11z m4676
-51 c9 -24 7 -27 -9 -10 -17 17 -19 26 -6 26 5 0 12 -7 15 -16z m-1141 -43
c177 -47 317 -132 452 -273 130 -135 200 -264 245 -449 26 -109 36 -282 21
-379 -14 -88 -60 -240 -73 -240 -5 0 -7 -4 -4 -8 8 -13 -7 -28 -39 -41 -29
-11 -29 -11 -3 -6 20 4 26 2 22 -8 -5 -15 -54 -21 -54 -6 0 5 -4 7 -10 4 -5
-3 -10 -14 -10 -23 0 -13 2 -14 9 -3 6 9 11 10 15 2 4 -6 2 -11 -4 -11 -6 0
-8 -5 -4 -12 5 -7 3 -8 -5 -4 -23 14 -30 50 -12 63 14 10 13 11 -7 6 -14 -3
-21 -11 -18 -19 4 -11 -1 -13 -22 -8 -15 4 -29 7 -32 6 -23 0 -29 -4 -25 -14
3 -7 0 -20 -5 -28 -7 -12 -13 -13 -28 -3 -15 9 -23 8 -36 -3 -9 -8 -7 -4 5 9
15 15 23 18 26 10 8 -21 22 -15 18 7 -2 12 4 25 16 34 17 12 18 14 4 20 -9 3
-13 2 -10 -4 9 -14 -9 -12 -23 2 -9 9 -12 9 -12 0 0 -7 4 -12 10 -12 20 0 -3
-28 -37 -44 -30 -14 -35 -14 -30 -2 4 10 1 13 -9 9 -8 -3 -14 1 -14 8 0 10 -3
10 -12 1 -7 -7 -23 -12 -36 -12 -13 0 -30 -7 -39 -15 -8 -9 -18 -13 -21 -10
-4 3 0 10 8 15 13 8 12 10 -2 10 -10 0 -18 -7 -18 -15 0 -7 8 -19 18 -24 9 -6
12 -11 5 -11 -21 0 -40 28 -38 54 2 15 0 25 -3 23 -4 -2 -23 -11 -43 -21 -26
-14 -41 -16 -54 -9 -12 7 -14 13 -6 17 6 4 11 2 11 -3 0 -16 17 -13 23 3 3 8
-1 13 -11 12 -10 0 -16 5 -14 14 2 11 -3 9 -15 -5 -10 -11 -27 -20 -38 -21
-11 -1 -26 -3 -34 -5 -7 -2 -16 2 -19 10 -3 10 0 12 11 8 9 -3 19 -2 22 3 4 6
-3 10 -15 10 -26 0 -37 25 -20 45 11 13 10 14 -6 9 -28 -10 -54 -35 -48 -46 3
-4 2 -7 -3 -6 -16 5 -54 -23 -47 -35 4 -7 3 -8 -1 -4 -12 10 -15 38 -4 31 5
-3 9 0 9 6 0 6 6 8 13 4 9 -5 9 -4 1 5 -9 10 -17 10 -35 1 l-24 -11 24 20 c14
13 18 21 10 21 -10 1 -9 5 4 14 9 7 17 17 17 21 0 5 -8 1 -19 -9 -11 -10 -25
-14 -36 -10 -17 7 -17 8 1 21 10 7 13 13 8 13 -6 0 -15 -5 -22 -12 -7 -7 -12
-8 -12 -3 0 6 -4 4 -9 -4 -8 -12 -12 -13 -26 -1 -13 11 -18 10 -30 -6 -14 -18
-14 -18 -15 0 0 15 -3 16 -14 7 -12 -10 -14 -9 -11 6 4 27 -4 34 -26 22 -23
-12 -29 -9 -33 18 -3 14 -10 17 -35 15 -32 -3 -32 -3 -17 21 9 13 13 26 10 30
-12 11 -23 -3 -17 -20 6 -15 5 -16 -9 -3 -9 8 -14 17 -13 20 2 3 -5 7 -16 7
-11 1 -17 -3 -13 -9 4 -6 1 -9 -7 -6 -8 3 -13 12 -11 22 2 9 -2 16 -8 16 -15
0 -12 -21 7 -42 14 -15 14 -18 1 -18 -8 0 -19 14 -24 33 -7 22 -16 32 -29 32
-37 0 -46 14 -24 36 11 11 25 17 31 13 7 -4 8 -3 4 4 -9 15 -36 15 -36 0 0 -7
-6 -5 -17 4 -10 9 -28 19 -41 23 -15 4 -21 12 -18 21 3 8 1 14 -3 14 -14 0
-21 -28 -8 -34 7 -2 2 -5 -11 -5 -19 -1 -21 1 -10 18 9 15 8 22 -5 36 -21 21
-21 26 0 18 11 -4 14 -3 9 5 -10 17 -33 15 -40 -3 -8 -21 -38 -7 -34 16 2 10
-5 24 -16 32 -17 12 -17 15 -2 30 9 8 12 18 7 21 -5 4 -11 1 -13 -6 -2 -6 -15
-13 -29 -15 -19 -2 -21 -1 -9 7 8 5 11 10 5 10 -5 0 -2 5 8 11 9 5 17 15 17
21 0 7 -5 6 -15 -2 -11 -9 -19 -6 -42 16 -15 15 -20 22 -10 15 9 -8 17 -10 17
-6 0 4 8 1 18 -6 9 -7 14 -9 10 -5 -4 5 -3 15 2 21 8 9 4 11 -17 7 -20 -4 -25
-2 -21 9 4 10 -1 15 -12 15 -10 0 -16 -4 -14 -8 3 -4 -2 -5 -10 -2 -9 3 -16 1
-16 -5 0 -6 -5 -11 -10 -11 -6 0 -3 11 5 24 15 23 15 25 -5 44 l-21 20 23 17
c17 13 18 16 5 11 -14 -4 -20 0 -24 14 -5 21 -25 29 -20 9 1 -6 -5 -14 -13
-16 -9 -3 -11 -1 -5 4 6 4 11 13 12 18 0 6 3 19 5 30 2 12 -2 19 -9 18 -7 -2
-13 3 -13 11 0 8 -10 16 -22 18 -12 2 -23 9 -24 16 -1 7 0 8 3 2 2 -5 9 -7 14
-4 6 3 16 0 24 -6 19 -16 33 -6 33 26 0 17 -3 22 -9 13 -4 -7 -5 -17 -3 -21 6
-10 1 -10 -20 -2 -9 3 -13 11 -9 17 4 6 0 8 -11 4 -14 -6 -15 -3 -5 14 6 11 8
23 5 26 -3 3 -8 -2 -12 -11 -3 -9 -10 -16 -15 -16 -6 0 -4 10 3 23 15 27 19
49 8 42 -4 -3 -13 2 -20 11 -10 11 -10 18 -2 26 9 9 12 9 12 -1 0 -7 5 -9 10
-6 6 3 10 11 10 17 0 6 -3 8 -7 5 -3 -4 -13 -2 -20 5 -19 16 -35 -9 -22 -33
13 -25 11 -33 -4 -17 -17 17 -29 61 -15 51 7 -3 8 -1 4 5 -4 7 -14 12 -22 12
-8 0 -12 5 -9 10 4 6 10 8 15 5 4 -3 7 6 6 20 -2 14 4 30 13 37 13 10 14 10 4
-2 -10 -11 -9 -16 5 -26 9 -8 22 -13 27 -14 6 0 3 5 -5 10 -33 21 -21 57 46
129 127 138 323 246 514 287 99 20 353 12 453 -15z m-2723 -101 c0 -5 -5 -10
-11 -10 -5 0 -7 5 -4 10 3 6 8 10 11 10 2 0 4 -4 4 -10z m4170 -20 c0 -5 -4
-10 -10 -10 -5 0 -10 5 -10 10 0 6 5 10 10 10 6 0 10 -4 10 -10z m-4120 -22
c0 -6 -7 -7 -16 -4 -9 4 -23 1 -32 -6 -13 -12 -14 -11 -2 8 13 21 50 22 50 2z
m5369 -103 c49 -25 81 -72 81 -118 0 -89 -63 -151 -151 -149 -92 2 -139 48
-139 137 0 26 7 59 17 75 35 60 130 87 192 55z m-5282 -61 c-3 -3 -12 -4 -19
-1 -8 3 -5 6 6 6 11 1 17 -2 13 -5z m9 -32 c-14 -14 -17 -14 -14 -2 3 17 20
31 27 24 3 -2 -3 -12 -13 -22z m4493 -167 c188 -45 379 -210 471 -408 48 -103
64 -179 64 -312 0 -170 -37 -295 -123 -413 -19 -25 -36 -40 -43 -36 -8 5 -9 2
-5 -9 7 -19 -9 -22 -33 -7 -13 8 -13 10 2 10 9 0 19 4 23 10 8 14 -48 7 -60
-7 -6 -8 -15 -9 -24 -4 -11 7 -9 10 8 16 11 3 21 11 21 16 0 6 4 8 9 5 5 -4
12 0 14 6 3 7 6 4 6 -7 1 -15 3 -17 10 -6 6 9 11 10 15 2 11 -16 26 -13 20 4
-4 8 -14 15 -24 15 -11 0 -22 4 -25 10 -4 6 -15 2 -27 -9 -20 -20 -54 -18 -41
2 3 6 1 7 -6 3 -7 -4 -15 2 -20 16 -6 13 -10 17 -10 10 -1 -8 -6 -10 -13 -6
-7 4 -5 -2 5 -13 14 -16 15 -22 5 -26 -7 -2 -10 -8 -6 -12 4 -4 13 -3 21 3 8
7 18 7 27 2 12 -8 10 -10 -8 -10 -13 0 -21 -4 -18 -8 7 -12 -48 -10 -56 2 -3
5 -14 11 -23 12 -12 2 -15 -3 -11 -14 5 -15 4 -15 -8 1 -7 9 -19 17 -27 17
-11 0 -11 -2 1 -10 17 -11 10 -13 -14 -4 -8 3 -12 12 -9 20 4 12 0 14 -21 8
-16 -4 -26 -2 -26 5 0 6 -8 8 -17 4 -16 -6 -17 -5 -3 13 8 10 10 16 6 12 -5
-4 -16 -2 -25 5 -14 10 -14 10 -4 -3 6 -8 12 -19 13 -25 2 -5 14 -16 29 -23
l26 -12 -27 5 c-27 5 -31 -5 -14 -35 7 -12 6 -12 -8 1 -9 9 -18 25 -19 37 -1
12 -5 22 -10 22 -4 0 -6 4 -2 9 3 5 0 13 -6 17 -8 4 -9 3 -5 -4 4 -7 3 -12 -3
-12 -5 0 -12 4 -15 9 -3 4 -17 6 -30 4 -25 -5 -41 -27 -30 -44 13 -22 -10 -5
-52 37 -40 40 -50 45 -80 41 -25 -4 -37 0 -44 12 -8 14 -9 14 -10 1 0 -9 5
-21 10 -26 7 -7 6 -11 -5 -11 -9 0 -15 9 -15 24 0 13 -5 23 -11 23 -7 0 -9
-10 -6 -25 3 -16 0 -24 -7 -22 -6 2 -10 13 -8 23 2 14 -4 20 -18 22 -44 4 -48
6 -42 20 3 10 0 13 -9 10 -8 -3 -13 -11 -11 -17 1 -7 -2 -10 -8 -6 -6 3 -8 11
-5 16 4 5 2 9 -4 9 -6 0 -8 7 -4 16 5 14 3 15 -15 5 -15 -8 -22 -8 -22 -1 0 5
7 11 15 11 8 1 20 2 27 3 6 0 12 7 14 14 1 7 0 8 -3 2 -5 -11 -53 10 -72 34
-14 17 -41 11 -41 -9 0 -8 -5 -17 -12 -21 -7 -4 -8 -3 -4 4 4 7 3 12 -3 12 -5
0 -13 -4 -16 -10 -3 -5 -12 -10 -18 -10 -7 0 0 8 16 18 33 20 35 34 5 30 -17
-2 -23 2 -24 17 -1 11 -5 28 -9 38 -6 14 -4 16 11 10 16 -6 17 -5 4 9 -14 15
-17 15 -33 0 -15 -13 -22 -14 -37 -4 -26 16 -35 15 -21 -2 9 -10 8 -15 -2 -19
-10 -4 -14 2 -13 16 1 16 7 22 26 22 14 0 29 -4 33 -10 5 -6 7 -1 4 12 -4 17
-1 20 12 16 12 -4 13 -3 5 6 -15 17 -57 23 -51 8 3 -7 -3 -13 -14 -13 -17 0
-17 1 -2 19 10 11 25 16 36 13 20 -5 54 20 43 31 -3 4 -13 -2 -21 -13 -8 -10
-15 -14 -15 -7 0 7 -6 10 -14 7 -8 -3 -17 0 -22 7 -4 8 -3 10 4 5 7 -4 12 -1
12 9 0 9 4 14 8 11 4 -2 9 5 9 16 2 21 2 21 -13 -1 -8 -11 -20 -21 -26 -21 -7
0 -6 5 2 15 11 13 6 14 -34 9 -31 -5 -46 -3 -46 4 0 7 11 9 30 6 34 -7 39 2
13 22 -21 16 -37 18 -28 4 3 -5 1 -10 -4 -10 -14 0 -14 6 2 31 10 17 9 22 -5
30 -10 6 -18 17 -18 26 0 13 2 14 17 2 15 -13 15 -12 4 9 -10 19 -10 26 1 39
12 15 11 15 -9 4 -19 -10 -23 -9 -23 3 0 8 -4 18 -10 21 -7 4 -7 -2 -1 -18 10
-25 6 -37 -12 -37 -5 0 -7 7 -4 15 4 8 1 17 -4 21 -7 4 -9 -3 -7 -17 2 -16 9
-24 21 -23 27 3 20 -13 -8 -18 -14 -3 -28 -1 -32 5 -3 6 -1 7 5 3 14 -8 15 -5
6 19 -5 13 -8 14 -15 3 -6 -9 -9 -9 -9 -1 0 7 12 24 26 38 14 14 23 29 19 33
-4 4 -10 1 -12 -5 -3 -7 -12 -13 -21 -13 -13 0 -14 2 -4 8 10 7 10 16 2 38
-10 28 -10 29 7 9 10 -11 17 -18 16 -16 -2 2 3 11 10 19 10 13 9 14 -1 8 -13
-8 -35 10 -40 32 -3 16 6 15 25 -3 8 -9 18 -13 21 -10 3 3 -4 12 -16 20 l-21
15 37 65 c42 74 134 172 207 222 147 99 413 148 584 108z m-4294 -15 c3 -6 -1
-7 -9 -4 -18 7 -21 14 -7 14 6 0 13 -4 16 -10z m1370 -21 c-3 -8 -18 -23 -33
-33 -27 -20 -27 -20 -9 0 9 12 14 24 10 29 -5 4 -3 5 3 2 7 -4 15 0 18 9 4 9
9 15 11 12 3 -3 3 -11 0 -19z m-3909 -40 c19 -11 34 -27 34 -35 0 -8 4 -14 10
-14 5 0 12 -15 15 -34 6 -28 2 -38 -21 -61 -15 -15 -24 -20 -21 -11 5 12 0 16
-18 16 -19 0 -23 4 -18 17 4 11 3 14 -5 9 -8 -4 -12 0 -13 11 0 16 -1 16 -9
-2 -6 -13 -9 -15 -9 -5 -1 8 -4 26 -8 39 -4 17 -3 22 6 17 6 -4 8 -12 5 -18
-4 -7 -2 -8 5 -4 6 4 9 12 6 17 -4 5 2 9 11 9 15 0 15 3 -4 23 -43 46 -22 61
34 26z m3044 -139 c0 -5 -4 -12 -10 -15 -5 -3 -10 -4 -10 -1 0 2 -3 12 -6 20
-5 12 -2 15 10 10 9 -3 16 -10 16 -14z m-2253 -14 c88 -42 107 -108 41 -145
-25 -14 -31 -14 -73 7 -53 26 -146 29 -185 7 -55 -31 -120 -8 -120 42 0 40 19
63 73 89 74 34 190 34 264 0z m2173 3 c0 -6 -4 -7 -10 -4 -5 3 -10 11 -10 16
0 6 5 7 10 4 6 -3 10 -11 10 -16z m34 9 c-3 -4 -9 -8 -15 -8 -5 0 -9 4 -9 8 0
5 7 9 15 9 8 0 12 -4 9 -9z m277 -35 c10 -11 10 -14 2 -9 -9 5 -13 1 -13 -11
0 -14 -2 -15 -9 -4 -5 7 -15 10 -22 7 -8 -4 -6 -1 4 7 14 11 15 16 5 20 -9 4
-8 6 3 6 9 1 23 -7 30 -16z m716 -15 c-3 -8 -6 -5 -6 6 -1 11 2 17 5 13 3 -3
4 -12 1 -19z m303 -338 c0 -5 7 -7 15 -4 8 4 15 2 15 -2 0 -5 -16 -9 -35 -10
-19 0 -35 3 -35 8 0 5 5 6 10 3 6 -3 10 -1 10 4 0 6 5 11 10 11 6 0 10 -4 10
-10z m1780 -70 c0 -5 -5 -10 -11 -10 -5 0 -7 5 -4 10 3 6 8 10 11 10 2 0 4 -4
4 -10z m-2633 -26 c43 -9 105 -28 138 -43 150 -68 318 -228 386 -366 54 -111
70 -180 76 -321 4 -101 2 -134 -16 -205 -34 -134 -127 -309 -164 -309 -8 0 -7
4 1 12 7 7 12 16 12 21 0 5 -9 -1 -19 -14 -14 -17 -16 -26 -8 -31 7 -4 -1 -8
-17 -8 -24 0 -27 -2 -16 -15 11 -13 10 -14 -4 -9 -9 3 -16 10 -16 15 0 5 -10
7 -22 5 -13 -3 -28 -5 -35 -5 -8 -1 -10 -8 -6 -18 6 -16 5 -17 -11 -3 -18 14
-17 15 10 27 16 7 26 12 22 13 -3 0 -14 3 -24 7 -11 4 -15 2 -11 -4 3 -5 -6
-16 -21 -23 -15 -7 -35 -16 -44 -21 -11 -6 -18 -5 -18 1 0 5 4 10 10 10 5 0 9
3 9 8 -1 4 -1 14 0 22 1 12 4 12 15 -3 13 -16 14 -16 27 0 12 15 12 16 -3 10
-12 -4 -15 -2 -11 9 3 8 12 13 19 10 8 -3 14 -1 14 4 0 14 -17 12 -50 -5 -27
-14 -29 -14 -23 2 6 15 4 16 -9 5 -11 -9 -18 -10 -23 -2 -3 6 -11 8 -16 5 -5
-4 -9 0 -9 7 0 7 -9 4 -22 -10 -12 -12 -19 -25 -14 -29 4 -4 10 -3 14 3 11 15
49 14 63 -2 10 -12 10 -17 0 -27 -10 -9 -11 -8 -6 6 8 20 -5 23 -23 5 -8 -8
-12 -8 -12 -1 0 6 -10 11 -22 11 -39 0 -60 8 -70 27 -6 10 -7 15 -2 12 5 -3
16 2 24 11 13 14 12 15 -2 9 -9 -3 -22 1 -28 9 -10 11 -10 14 0 14 8 0 11 3 7
6 -3 3 -11 3 -17 -1 -8 -5 -8 -10 0 -20 9 -11 8 -20 -4 -37 -9 -12 -16 -17
-16 -10 0 7 -8 12 -17 10 -11 -2 -18 3 -17 13 1 9 -5 16 -12 16 -7 0 -13 -3
-12 -6 2 -20 -3 -35 -10 -26 -4 6 -20 17 -36 25 -20 10 -24 16 -14 18 21 4 18
49 -2 47 -9 0 -21 -5 -29 -9 -15 -10 -33 12 -24 28 3 5 1 6 -5 2 -6 -3 -9 -15
-7 -26 2 -11 0 -22 -5 -25 -5 -3 -8 -11 -6 -18 1 -7 1 -9 -1 -4 -3 4 -10 4
-15 1 -7 -5 -8 -2 -3 7 17 27 13 47 -8 41 -11 -3 -18 -1 -14 4 3 6 -6 11 -21
12 -15 1 -29 7 -31 13 -2 6 -10 1 -18 -10 -14 -20 -40 -31 -28 -12 7 12 -29
33 -39 23 -4 -3 -4 1 0 11 4 13 1 17 -14 17 -12 0 -23 4 -26 8 -3 5 8 7 23 4
16 -2 32 1 36 9 6 8 4 10 -5 4 -8 -5 -18 -1 -27 10 -7 11 -13 13 -13 7 0 -8
-9 -10 -26 -6 -22 6 -25 4 -19 -7 7 -11 6 -12 -7 -2 -8 7 -18 11 -21 8 -4 -3
-4 -2 -1 3 3 4 11 7 17 7 7 1 11 7 9 15 -3 11 0 11 12 0 10 -7 16 -8 16 -2 0
17 -20 25 -33 14 -13 -11 -52 10 -40 21 3 4 0 7 -8 7 -12 0 -11 2 1 11 13 9
13 10 0 6 -8 -2 -14 -10 -13 -16 5 -20 -12 -11 -23 13 -9 18 -9 28 0 37 8 9 8
10 -1 5 -6 -3 -13 -1 -16 6 -2 7 -3 5 -2 -4 2 -14 -3 -18 -23 -17 -17 1 -21 3
-9 6 23 6 22 20 -3 28 -11 3 -21 11 -21 16 -1 5 -2 14 -3 19 -2 18 -30 30 -38
17 -5 -8 -8 -6 -8 7 0 14 6 17 28 14 29 -4 36 11 18 41 -7 11 -13 9 -28 -10
-11 -13 -17 -18 -13 -11 3 6 4 12 1 12 -2 0 -12 3 -22 7 -13 5 -15 3 -9 -8 7
-12 6 -12 -7 -1 -13 10 -17 10 -20 0 -3 -8 -7 -6 -11 6 -4 9 -3 15 2 12 4 -3
17 2 27 10 14 12 15 14 3 11 -9 -3 -22 -1 -30 4 -9 6 -10 9 -2 9 8 0 10 7 6
18 -6 15 -4 15 15 -2 12 -11 22 -15 22 -10 0 5 -13 17 -29 27 -22 13 -31 14
-35 5 -3 -7 -4 -4 -3 7 1 12 -3 19 -11 17 -8 -1 -11 2 -7 8 5 8 13 6 24 -4 22
-20 49 -22 32 -3 -6 8 -7 18 -3 22 4 5 -1 5 -10 2 -11 -4 -17 -2 -15 5 1 7 -7
13 -18 15 -16 3 -17 2 -5 -6 9 -7 10 -11 3 -11 -18 0 -27 21 -13 30 8 5 0 12
-24 20 -46 15 -50 22 -25 49 l20 21 -26 25 c-27 28 -34 45 -10 25 19 -16 20 3
1 22 -33 34 107 248 216 330 107 82 231 137 333 151 74 10 202 6 272 -9z m953
6 c0 -5 -5 -10 -11 -10 -5 0 -7 5 -4 10 3 6 8 10 11 10 2 0 4 -4 4 -10z m1680
-14 c0 -3 -4 -8 -10 -11 -5 -3 -10 -1 -10 4 0 6 5 11 10 11 6 0 10 -2 10 -4z
m21 -49 c-10 -9 -11 -8 -5 6 3 10 9 15 12 12 3 -3 0 -11 -7 -18z m-1554 -19
c-3 -8 -6 -5 -6 6 -1 11 2 17 5 13 3 -3 4 -12 1 -19z m1613 -3 c0 -12 -19 -12
-23 0 -4 9 -1 12 9 8 7 -3 14 -7 14 -8z m-1681 -29 c-3 -3 -11 5 -18 17 -13
21 -12 21 5 5 10 -10 16 -20 13 -22z m211 -25 c0 -22 -26 -35 -36 -19 -5 7 -3
8 5 4 8 -5 14 0 18 13 7 26 13 27 13 2z m54 3 c9 -3 16 -11 16 -16 0 -6 -5 -6
-14 1 -11 9 -14 8 -12 -5 0 -9 -6 -19 -14 -22 -12 -3 -12 -2 -3 8 6 7 9 19 6
26 -6 16 -2 17 21 8z m132 -44 c-3 -23 3 -35 22 -50 13 -11 20 -20 15 -20 -5
0 -18 9 -28 20 -11 13 -25 18 -37 14 -10 -3 -18 -1 -18 5 0 6 9 11 21 11 15 0
19 4 15 16 -3 9 -4 20 0 25 10 17 14 9 10 -21z m1364 0 c0 -5 -4 -10 -10 -10
-5 0 -10 5 -10 10 0 6 5 10 10 10 6 0 10 -4 10 -10z m-1572 -25 c-3 -3 -9 2
-12 12 -6 14 -5 15 5 6 7 -7 10 -15 7 -18z m77 15 c-3 -5 -12 -10 -18 -10 -7
0 -6 4 3 10 19 12 23 12 15 0z m1455 -4 c0 -3 -4 -8 -10 -11 -5 -3 -10 -1 -10
4 0 6 5 11 10 11 6 0 10 -2 10 -4z m-1107 -43 c-3 -7 -6 -13 -8 -13 -2 0 -5 6
-8 13 -3 8 1 14 8 14 7 0 11 -6 8 -14z m1152 7 c3 -5 2 -10 -4 -10 -5 0 -13 5
-16 10 -3 6 -2 10 4 10 5 0 13 -4 16 -10z m-1265 -10 c13 -9 13 -10 0 -10 -8
0 -22 5 -30 10 -13 9 -13 10 0 10 8 0 22 -5 30 -10z m225 -20 c-4 -12 -2 -20
5 -20 6 0 8 -5 4 -11 -9 -16 -28 17 -20 37 8 22 18 17 11 -6z m29 5 c-4 -8 -8
-15 -10 -15 -2 0 -4 7 -4 15 0 8 4 15 10 15 5 0 7 -7 4 -15z m-384 -11 c0 -8
-19 -13 -24 -6 -3 5 1 9 9 9 8 0 15 -2 15 -3z m160 -4 c0 -5 -5 -10 -11 -10
-5 0 -7 5 -4 10 3 6 8 10 11 10 2 0 4 -4 4 -10z m1349 -22 c-25 -15 -34 -17
-43 -7 -8 9 -7 10 7 5 13 -4 20 -1 24 13 3 13 11 17 24 14 18 -5 16 -8 -12
-25z m-1292 0 c-3 -8 -6 -5 -6 6 -1 11 2 17 5 13 3 -3 4 -12 1 -19z m212 -1
c0 -9 -2 -8 -6 1 -2 6 -10 9 -15 6 -7 -4 -8 -2 -4 5 9 13 26 5 25 -12z m-154
-7 c3 -6 -1 -7 -9 -4 -18 7 -21 14 -7 14 6 0 13 -4 16 -10z m-5074 -55 c49
-31 73 -84 67 -147 -12 -118 -135 -185 -237 -127 -72 40 -107 129 -58 149 19
8 10 15 -15 11 -15 -2 -8 32 12 64 51 82 148 103 231 50z m6334 15 c-3 -5 -12
-10 -18 -10 -7 0 -6 4 3 10 19 12 23 12 15 0z m86 -37 c13 -16 12 -17 -3 -5
-9 8 -23 10 -29 6 -8 -4 -9 -3 -5 4 10 17 21 15 37 -5z m163 -9 c8 -3 12 -12
9 -20 -4 -10 -10 -11 -24 -3 -11 5 -17 14 -14 20 7 11 9 11 29 3z m-54 -39 c0
-2 -9 -3 -19 -2 -11 0 -18 5 -15 9 4 6 34 0 34 -7z m216 -23 c-9 -9 -19 -12
-23 -8 -5 5 -2 11 5 13 6 3 10 9 7 14 -4 5 1 6 10 3 15 -6 15 -8 1 -22z m-146
6 c0 -4 -4 -8 -9 -8 -6 0 -12 4 -15 8 -3 5 1 9 9 9 8 0 15 -4 15 -9z m257 -60
c-3 -7 -5 -2 -5 12 0 14 2 19 5 13 2 -7 2 -19 0 -25z m-5735 -165 c225 -78
399 -258 478 -493 30 -90 38 -278 16 -373 -22 -93 -74 -215 -97 -227 -15 -9
-17 -7 -13 5 8 20 -34 67 -50 57 -17 -10 -77 -12 -71 -1 4 5 1 9 -4 9 -14 0
-14 -13 1 -28 7 -7 8 -12 4 -12 -4 0 -16 10 -25 22 -16 19 -18 19 -24 4 -4
-10 -3 -15 3 -11 6 3 10 3 11 -2 0 -4 2 -16 4 -25 2 -11 -2 -15 -11 -11 -8 3
-12 9 -9 13 3 4 -2 11 -11 14 -16 6 -40 -7 -56 -29 -5 -7 -8 -6 -8 0 0 6 5 16
12 23 8 8 2 8 -25 0 -20 -6 -34 -15 -31 -20 3 -4 1 -8 -3 -8 -5 0 -14 10 -22
21 -11 18 -15 19 -23 8 -8 -12 -9 -11 -5 1 2 8 12 17 22 18 9 2 15 0 12 -5 -3
-5 5 -10 19 -11 13 -1 24 3 24 8 0 6 3 9 8 9 4 -1 14 -1 22 0 12 1 13 3 1 10
-17 11 -53 2 -44 -11 3 -6 0 -8 -8 -6 -8 3 -13 12 -11 22 2 9 -2 16 -8 16 -6
0 -9 -4 -6 -9 10 -15 -37 -21 -54 -6 -11 10 -20 11 -30 4 -13 -10 -13 -10 0
-6 26 8 47 -30 28 -49 -5 -4 -8 0 -8 10 0 10 -5 14 -12 10 -7 -4 -8 -3 -4 4 4
7 3 12 -3 12 -5 0 -11 -6 -14 -12 -3 -7 -4 -2 -4 12 1 14 8 31 17 38 12 10 10
10 -13 0 -16 -7 -26 -17 -23 -25 3 -7 -1 -13 -10 -13 -9 0 -12 -5 -8 -12 4 -7
4 -10 -1 -6 -4 4 -17 3 -27 -3 -16 -9 -19 -8 -15 3 2 7 9 12 15 11 12 -3 10
23 -3 34 -4 4 -5 2 0 -6 6 -10 1 -12 -24 -6 -30 6 -64 -11 -61 -32 1 -4 -4 -9
-12 -11 -9 -2 -9 -1 -2 5 6 4 10 18 9 30 -1 12 1 20 5 18 4 -2 7 2 7 9 0 8 -7
12 -15 9 -8 -3 -18 0 -23 8 -7 12 -9 12 -9 -1 0 -13 -1 -13 -10 0 -8 13 -11
13 -22 1 -11 -11 -11 -13 1 -6 9 5 12 4 8 -2 -7 -12 -57 -5 -57 7 0 5 8 10 18
12 12 3 9 6 -10 10 -15 3 -25 2 -23 -2 2 -4 -2 -7 -10 -7 -10 0 -13 7 -8 25 5
22 4 23 -16 13 -12 -7 -20 -15 -17 -19 2 -4 -4 -8 -14 -8 -10 0 -18 5 -17 11
1 5 -4 9 -10 8 -7 -2 -13 2 -13 7 0 6 -12 11 -27 11 -27 2 -27 2 -3 6 14 3 30
9 35 15 7 8 5 9 -7 5 -9 -3 -22 1 -28 8 -7 8 -16 12 -21 9 -5 -3 -17 0 -26 6
-15 9 -14 10 7 4 21 -6 23 -5 13 8 -7 8 -9 19 -5 24 4 4 -1 2 -10 -5 -10 -8
-18 -9 -18 -3 0 5 -10 8 -22 5 -23 -4 -23 -4 -3 12 19 15 19 15 -5 11 -14 -2
-31 -5 -38 -5 -7 -1 -10 -6 -6 -13 4 -7 3 -8 -5 -4 -9 6 -9 11 0 22 6 8 14 12
17 10 5 -6 32 19 32 30 0 3 -6 1 -13 -5 -18 -14 -30 -2 -15 16 15 18 4 27 -13
11 -21 -20 -49 -21 -49 -3 0 10 5 13 13 9 9 -5 9 -3 -1 7 -10 11 -14 11 -21 1
-6 -10 -10 -10 -21 3 -11 13 -10 15 4 9 9 -3 16 -2 16 4 0 5 11 9 25 8 16 0
23 -6 20 -13 -7 -21 3 -15 16 8 10 20 9 21 -12 16 -13 -3 -29 -1 -36 5 -9 7
-13 7 -13 -1 0 -6 -8 -11 -17 -10 -11 0 -13 3 -5 6 6 2 9 9 6 14 -4 6 -11 6
-19 -1 -9 -7 -15 -7 -23 3 -11 13 -6 57 7 57 4 0 7 9 8 20 1 14 -7 24 -23 30
-33 13 -47 13 -39 0 4 -6 10 -8 15 -5 5 3 11 1 15 -5 4 -6 11 -8 16 -5 12 8
11 -6 -4 -31 -11 -20 -13 -20 -27 -6 -13 14 -12 15 3 9 18 -7 22 1 9 18 -10
14 -41 18 -56 6 -8 -7 -12 -5 -13 9 -1 13 3 17 13 13 8 -3 14 1 14 11 0 9 -7
16 -15 16 -11 0 -15 9 -13 30 1 20 6 26 12 20 13 -13 39 -13 31 0 -4 6 -10 8
-15 5 -4 -3 -10 4 -13 15 -3 11 -1 20 5 20 5 0 6 5 2 11 -5 8 -13 4 -24 -11
-13 -17 -19 -19 -22 -9 -3 8 2 20 11 26 14 11 14 13 -5 19 -12 3 -27 17 -33
30 -6 14 -7 23 -2 19 5 -3 12 -1 16 5 3 5 1 10 -4 10 -17 0 -25 3 -43 19 -16
14 -16 17 5 50 27 44 35 56 69 92 14 16 24 29 22 29 -20 0 123 107 186 140
127 65 200 81 365 77 125 -3 149 -7 227 -34z m4693 -30 c75 -38 157 -124 193
-200 24 -51 27 -70 27 -159 0 -96 -2 -104 -37 -175 -20 -41 -50 -87 -67 -103
-30 -29 -31 -29 -31 -7 0 12 4 19 10 16 6 -3 10 -1 10 5 0 7 -6 10 -14 7 -7
-3 -20 0 -27 6 -10 10 -10 8 0 -6 8 -9 11 -21 7 -24 -4 -4 -11 -1 -16 7 -8 12
-10 12 -10 1 0 -8 -8 -4 -21 10 -18 22 -19 22 -10 2 9 -17 7 -22 -6 -28 -10
-3 -14 -3 -11 1 12 12 -11 44 -27 37 -13 -5 -13 -7 2 -19 17 -12 17 -13 -2 -9
-11 2 -24 4 -28 4 -5 1 -5 5 -2 11 3 6 -1 7 -10 3 -9 -3 -21 -15 -26 -27 -8
-17 -8 -15 -3 9 3 16 2 27 -2 23 -3 -4 -15 -3 -25 3 -15 8 -19 6 -19 -6 0 -10
5 -13 13 -9 6 4 8 3 4 -1 -4 -5 -14 -10 -23 -11 -10 -2 -13 3 -9 17 4 13 2 19
-9 19 -10 0 -13 -6 -10 -17 5 -17 5 -17 -6 0 -6 9 -15 15 -21 12 -5 -4 -6 2
-2 11 4 12 3 15 -5 10 -7 -4 -12 -3 -12 3 0 5 -10 11 -22 13 -16 2 -22 9 -20
21 3 20 -8 22 -27 5 -11 -10 -13 -10 -7 0 4 6 2 12 -3 12 -6 0 -11 7 -11 16 0
10 -6 14 -15 10 -8 -3 -14 0 -12 7 1 7 -8 11 -23 10 -24 -3 -24 -2 -6 11 10 8
15 20 11 26 -5 8 -11 7 -23 -2 -13 -11 -15 -10 -9 5 3 9 2 17 -4 17 -6 0 -7 5
-3 12 4 7 3 8 -4 4 -6 -4 -8 -14 -5 -22 3 -9 -6 -4 -21 11 -20 20 -25 32 -20
48 l7 22 -19 -20 c-11 -11 -16 -16 -11 -11 15 20 6 36 -20 37 -27 0 -27 1 -5
9 27 11 29 20 3 13 -13 -3 -21 2 -26 16 -8 25 -25 28 -26 4 0 -12 -2 -13 -6
-5 -3 7 1 20 9 29 7 10 8 14 1 10 -7 -4 -14 1 -18 13 -18 57 108 220 202 261
82 36 95 38 198 36 89 -3 107 -7 160 -34z m-3170 -25 c5 4 5 1 1 -6 -6 -10
-11 -10 -22 -1 -8 6 -14 14 -14 16 0 3 6 0 13 -6 8 -6 18 -7 22 -3z m16 -41
c-10 -9 -11 -8 -5 6 3 10 9 15 12 12 3 -3 0 -11 -7 -18z m4816 -36 c23 -11 46
-28 52 -39 15 -27 14 -75 -1 -90 -16 -16 -59 -15 -82 3 -11 8 -36 15 -56 15
-47 0 -80 24 -80 59 0 67 78 92 167 52z m-4687 -16 c0 -8 -4 -15 -10 -15 -5 0
-7 7 -4 15 4 8 8 15 10 15 2 0 4 -7 4 -15z m68 -157 c17 -17 15 -24 -7 -24
-14 0 -17 4 -10 12 7 8 6 14 -3 17 -7 3 -8 6 -2 6 5 1 15 -4 22 -11z m2479
-94 c-3 -3 -12 -4 -19 -1 -8 3 -5 6 6 6 11 1 17 -2 13 -5z m-5018 -48 c-12
-10 -60 -16 -54 -6 3 5 18 10 32 10 15 0 24 -2 22 -4z m4452 -25 c78 -30 109
-63 109 -115 0 -87 -49 -111 -138 -69 -74 35 -204 44 -279 19 -55 -18 -86 -13
-114 20 -55 63 -12 137 96 165 17 4 84 7 150 5 96 -2 131 -7 176 -25z m1905
-6 c160 -78 193 -303 63 -420 -19 -16 -26 -21 -16 -9 24 29 22 32 -23 29 -28
-2 -38 0 -34 8 5 8 2 8 -7 0 -18 -17 -32 -16 -26 2 5 11 1 12 -20 4 -32 -12
-58 5 -33 21 12 8 9 9 -10 8 -14 -2 -28 -7 -32 -13 -4 -6 -8 -2 -8 8 0 9 -5
17 -11 17 -5 0 -8 4 -5 9 5 7 -11 8 -31 2 -10 -3 -18 0 -18 9 0 5 -6 15 -14
22 -11 11 -13 11 -6 0 6 -11 3 -11 -14 0 -12 7 -21 18 -21 25 0 12 -12 17 -25
11 -3 -2 -15 12 -26 30 -12 17 -26 32 -32 32 -6 0 -7 3 -4 7 4 3 0 14 -8 24
-23 25 -10 61 42 119 80 89 205 111 319 55z m-3526 -3 c0 -4 -9 -8 -19 -8 -11
0 -17 4 -15 8 3 4 12 8 20 8 8 0 14 -4 14 -8z m50 -26 c0 -2 -7 -7 -16 -10 -8
-3 -12 -2 -9 4 3 6 1 10 -4 10 -6 0 -11 5 -11 10 0 7 6 7 20 0 11 -6 20 -12
20 -14z m77 -7 c-6 -10 -14 -14 -15 -9 -2 6 -10 3 -17 -7 -13 -17 -14 -17 -11
-1 2 20 37 49 48 42 4 -3 2 -14 -5 -25z m-2957 3 c0 -13 -12 -22 -22 -16 -10
6 -1 24 13 24 5 0 9 -4 9 -8z m2835 -2 c3 -6 -1 -7 -9 -4 -18 7 -21 14 -7 14
6 0 13 -4 16 -10z m220 -70 c3 -5 1 -10 -4 -10 -6 0 -11 5 -11 10 0 6 2 10 4
10 3 0 8 -4 11 -10z m54 -53 c1 -5 -6 -1 -15 7 -8 9 -12 21 -8 28 5 8 10 6 15
-8 4 -10 8 -23 8 -27z m26 34 c3 -5 2 -12 -3 -15 -5 -3 -9 1 -9 9 0 17 3 19
12 6z m-2988 -193 c-3 -8 -6 -5 -6 6 -1 11 2 17 5 13 3 -3 4 -12 1 -19z m57
-7 c3 -5 -3 -11 -15 -14 -16 -4 -18 -3 -8 9 13 16 16 17 23 5z m5986 -32 c0
-6 -4 -7 -10 -4 -5 3 -10 11 -10 16 0 6 5 7 10 4 6 -3 10 -11 10 -16z m-5916
-54 c3 -8 1 -15 -3 -15 -5 0 -11 7 -15 15 -3 8 -1 15 3 15 5 0 11 -7 15 -15z
m6745 -21 c84 -33 123 -146 83 -236 -16 -37 -29 -50 -73 -71 -58 -30 -89 -33
-140 -16 -46 16 -78 46 -100 94 -25 54 -24 103 4 156 42 80 135 110 226 73z
m-6659 -44 c0 -5 -5 -10 -11 -10 -5 0 -7 5 -4 10 3 6 8 10 11 10 2 0 4 -4 4
-10z m1789 -1 c111 -25 225 -112 286 -215 30 -51 55 -150 55 -219 0 -60 -22
-150 -50 -206 -30 -57 -131 -163 -142 -147 -5 10 -8 8 -8 -4 0 -18 -15 -25
-23 -10 -2 4 -2 1 -1 -5 2 -7 -10 -20 -26 -28 -34 -18 -40 -18 -40 -4 0 5 4 8
8 5 5 -3 9 9 10 26 1 39 19 76 41 81 10 3 8 5 -6 6 -14 1 -23 -5 -23 -13 0
-17 -24 -28 -45 -20 -23 9 -18 23 10 30 14 3 22 10 19 16 -3 5 -11 4 -20 -3
-10 -8 -14 -9 -14 0 0 8 -11 6 -31 -5 -26 -13 -31 -13 -26 -2 3 8 -1 15 -9 15
-7 0 -11 -3 -9 -7 2 -4 -7 -5 -20 -2 -18 3 -25 0 -25 -12 0 -10 -8 -16 -22
-15 -22 0 -22 1 -3 9 11 5 14 9 7 9 -9 1 -11 9 -8 24 3 12 3 17 1 11 -6 -12
-65 -6 -65 7 0 5 -7 9 -16 9 -8 0 -13 4 -9 9 3 5 1 13 -5 16 -6 4 -10 3 -9 -2
5 -30 -2 -37 -18 -19 -13 13 -14 20 -6 23 7 2 9 11 6 19 -4 12 -8 12 -19 -3
-12 -17 -13 -17 -14 5 0 24 -14 29 -26 10 -4 -7 -3 -8 4 -4 7 4 12 1 12 -10 0
-13 -3 -14 -15 -4 -8 6 -18 9 -22 7 -5 -3 -10 6 -11 20 -1 15 -11 32 -22 40
-11 8 -20 22 -21 31 0 14 -2 14 -8 -2 -5 -14 -10 -16 -15 -7 -4 6 -5 19 -2 27
3 9 1 12 -4 9 -6 -3 -10 -1 -10 4 0 6 -9 11 -20 11 -13 0 -20 7 -20 20 0 11
-4 20 -10 20 -5 0 -10 -7 -10 -15 0 -22 -18 -18 -25 6 -5 16 -9 18 -15 9 -6
-9 -10 -6 -15 10 -4 14 -3 25 5 30 8 5 11 22 8 43 -2 20 0 33 4 31 4 -3 8 4 8
16 0 12 -4 18 -10 15 -5 -3 -10 -1 -10 4 0 6 8 11 17 11 13 0 14 3 5 12 -9 9
-4 25 20 70 86 162 290 250 477 207z m-1039 -100 c0 -5 4 -8 9 -5 5 4 7 -4 3
-16 l-5 -22 -9 23 c-5 13 -12 19 -19 15 -8 -4 -9 -3 -5 4 9 15 26 16 26 1z
m-244 -41 c3 -4 -1 -5 -10 -4 -8 1 -18 5 -22 8 -3 4 1 5 10 4 8 -1 18 -5 22
-8z m-126 -12 c0 -2 -8 -10 -17 -17 -16 -13 -17 -12 -4 4 13 16 21 21 21 13z
m4939 -51 c108 -59 163 -153 169 -289 3 -50 1 -86 -4 -83 -5 3 -10 -11 -11
-30 -2 -43 -18 -62 -35 -44 -11 10 -10 11 5 6 9 -4 17 -4 17 0 0 12 -74 75
-113 96 -21 11 -47 29 -57 39 -11 11 -31 20 -45 20 -18 0 -25 5 -25 20 0 13
-7 20 -20 20 -13 0 -20 7 -20 19 0 15 -10 21 -40 26 -25 4 -40 12 -40 21 0 9
-11 14 -30 14 -20 0 -30 5 -30 15 0 9 -12 18 -29 21 -20 4 -31 14 -35 30 -4
13 -13 24 -21 24 -20 0 -19 27 1 47 8 9 41 27 72 40 49 20 70 23 147 20 77 -2
98 -7 144 -32z m-2481 -71 c48 -20 92 -62 92 -89 0 -29 -28 -65 -51 -65 -11 0
-39 10 -62 21 -56 29 -129 29 -185 1 -33 -18 -47 -20 -62 -12 -57 31 -41 103
31 138 55 27 179 30 237 6z m3262 -209 c42 -22 70 -63 70 -102 0 -56 -43 -83
-68 -43 -7 11 -18 20 -25 20 -8 0 -7 -4 3 -10 8 -5 10 -10 5 -10 -6 0 -17 6
-23 12 -10 10 -14 10 -20 1 -6 -9 -17 -5 -39 16 -17 15 -38 31 -47 34 -20 8
-20 26 0 55 29 42 92 54 144 27z m-4803 -67 c0 -18 -2 -27 -5 -20 -2 6 -9 9
-14 6 -7 -5 -8 -2 -3 6 4 7 2 16 -6 22 -11 8 -10 9 4 4 9 -3 17 -1 17 4 0 6 2
10 3 10 2 0 4 -15 4 -32z m33 -118 c0 -5 -2 -10 -4 -10 -3 0 -8 5 -11 10 -3 6
-1 10 4 10 6 0 11 -4 11 -10z m4113 -15 c-3 -9 -8 -14 -10 -11 -3 3 -2 9 2 15
9 16 15 13 8 -4z m-4088 -15 c3 -5 1 -10 -4 -10 -6 0 -11 5 -11 10 0 6 2 10 4
10 3 0 8 -4 11 -10z m445 -46 c0 -8 -5 -12 -10 -9 -6 4 -8 11 -5 16 9 14 15
11 15 -7z m15 -114 c-11 -5 -33 -8 -50 -8 -29 1 -29 1 5 8 49 10 69 10 45 0z
m-102 -17 c-13 -2 -33 -2 -45 0 -13 2 -3 4 22 4 25 0 35 -2 23 -4z"/>
<path d="M7246 6903 c-6 -14 -5 -15 5 -6 7 7 10 15 7 18 -3 3 -9 -2 -12 -12z"/>
<path d="M7345 6730 c-3 -5 -1 -10 4 -10 6 0 11 5 11 10 0 6 -2 10 -4 10 -3 0
-8 -4 -11 -10z"/>
<path d="M7565 6530 c-3 -6 1 -7 9 -4 18 7 21 14 7 14 -6 0 -13 -4 -16 -10z"/>
<path d="M7541 6514 c0 -11 3 -14 6 -6 3 7 2 16 -1 19 -3 4 -6 -2 -5 -13z"/>
<path d="M7566 6497 c3 -10 9 -15 12 -12 3 3 0 11 -7 18 -10 9 -11 8 -5 -6z"/>
<path d="M7630 6485 c0 -8 4 -15 10 -15 5 0 7 7 4 15 -4 8 -8 15 -10 15 -2 0
-4 -7 -4 -15z"/>
<path d="M3565 6579 c-4 -6 -5 -12 -2 -15 2 -3 7 2 10 11 7 17 1 20 -8 4z"/>
<path d="M3588 6563 c7 -3 16 -2 19 1 4 3 -2 6 -13 5 -11 0 -14 -3 -6 -6z"/>
<path d="M3557 6530 c-3 -11 -2 -20 3 -20 4 0 10 9 13 20 3 11 2 20 -3 20 -4
0 -10 -9 -13 -20z"/>
<path d="M3600 6509 c0 -5 5 -7 10 -4 6 3 10 8 10 11 0 2 -4 4 -10 4 -5 0 -10
-5 -10 -11z"/>
<path d="M3646 6343 c-6 -14 -5 -15 5 -6 7 7 10 15 7 18 -3 3 -9 -2 -12 -12z"/>
<path d="M3860 6156 c0 -2 8 -10 18 -17 15 -13 16 -12 3 4 -13 16 -21 21 -21
13z"/>
<path d="M3848 6134 c6 -12 8 -25 4 -30 -4 -5 0 -3 8 4 12 10 12 15 -4 30 -18
16 -18 16 -8 -4z"/>
<path d="M3900 6101 c0 -6 4 -13 10 -16 6 -3 7 1 4 9 -7 18 -14 21 -14 7z"/>
<path d="M3935 6080 c-3 -5 -1 -10 4 -10 6 0 11 5 11 10 0 6 -2 10 -4 10 -3 0
-8 -4 -11 -10z"/>
<path d="M4050 6006 c0 -2 7 -7 16 -10 8 -3 12 -2 9 4 -6 10 -25 14 -25 6z"/>
<path d="M4696 5902 c-3 -5 1 -9 9 -9 8 0 12 4 9 9 -3 4 -7 8 -9 8 -2 0 -6 -4
-9 -8z"/>
<path d="M4270 5881 c0 -10 30 -24 37 -17 3 2 -5 9 -16 16 -12 6 -21 7 -21 1z"/>
<path d="M4436 5877 c3 -10 9 -15 12 -12 3 3 0 11 -7 18 -10 9 -11 8 -5 -6z"/>
<path d="M4593 5875 c0 -8 4 -12 9 -9 4 3 8 9 8 15 0 5 -4 9 -8 9 -5 0 -9 -7
-9 -15z"/>
<path d="M4665 5880 c3 -5 8 -10 11 -10 2 0 4 5 4 10 0 6 -5 10 -11 10 -5 0
-7 -4 -4 -10z"/>
<path d="M4398 5873 c7 -3 16 -2 19 1 4 3 -2 6 -13 5 -11 0 -14 -3 -6 -6z"/>
<path d="M4474 5859 c-3 -6 1 -18 10 -27 9 -10 16 -12 16 -5 0 7 -5 15 -10 18
-6 4 -8 11 -5 16 4 5 4 9 1 9 -3 0 -8 -5 -12 -11z"/>
<path d="M4546 5833 c-6 -14 -5 -15 5 -6 7 7 10 15 7 18 -3 3 -9 -2 -12 -12z"/>
<path d="M1620 6420 c-9 -6 -10 -10 -3 -10 6 0 15 5 18 10 8 12 4 12 -15 0z"/>
<path d="M5255 6120 c-3 -5 -1 -10 4 -10 6 0 11 5 11 10 0 6 -2 10 -4 10 -3 0
-8 -4 -11 -10z"/>
<path d="M5395 5780 c-3 -5 -1 -10 4 -10 6 0 11 5 11 10 0 6 -2 10 -4 10 -3 0
-8 -4 -11 -10z"/>
<path d="M5420 5755 c0 -8 7 -15 15 -15 9 0 12 6 9 15 -4 8 -10 15 -15 15 -5
0 -9 -7 -9 -15z"/>
<path d="M5545 5590 c3 -5 8 -10 11 -10 2 0 4 5 4 10 0 6 -5 10 -11 10 -5 0
-7 -4 -4 -10z"/>
<path d="M5576 5582 c-3 -5 1 -9 9 -9 8 0 15 4 15 9 0 4 -4 8 -9 8 -6 0 -12
-4 -15 -8z"/>
<path d="M5635 5510 c-3 -5 1 -10 10 -10 9 0 13 5 10 10 -3 6 -8 10 -10 10 -2
0 -7 -4 -10 -10z"/>
<path d="M5735 5390 c3 -5 8 -10 11 -10 2 0 4 5 4 10 0 6 -5 10 -11 10 -5 0
-7 -4 -4 -10z"/>
<path d="M5956 5291 c-10 -10 -14 -21 -9 -24 4 -3 16 6 26 19 21 28 8 32 -17
5z"/>
<path d="M6190 5196 c0 -9 5 -16 10 -16 6 0 10 4 10 9 0 6 -4 13 -10 16 -5 3
-10 -1 -10 -9z"/>
<path d="M6291 5192 c-8 -14 -6 -18 10 -19 10 -1 19 3 19 8 0 6 -5 7 -12 3 -8
-5 -9 -2 -5 9 8 23 0 22 -12 -1z"/>
<path d="M6775 5178 l-20 -21 23 12 c12 6 22 16 22 21 0 13 -2 12 -25 -12z"/>
<path d="M6860 5196 c0 -2 7 -7 16 -10 8 -3 12 -2 9 4 -6 10 -25 14 -25 6z"/>
<path d="M6585 5180 c-3 -5 -1 -10 4 -10 6 0 11 5 11 10 0 6 -2 10 -4 10 -3 0
-8 -4 -11 -10z"/>
<path d="M6656 5155 c4 -8 11 -15 16 -15 6 0 5 6 -2 15 -7 8 -14 15 -16 15 -2
0 -1 -7 2 -15z"/>
<path d="M6545 5151 c-3 -5 -2 -12 3 -15 5 -3 9 1 9 9 0 17 -3 19 -12 6z"/>
<path d="M7501 5393 c7 -12 15 -20 18 -17 3 2 -3 12 -13 22 -17 16 -18 16 -5
-5z"/>
<path d="M7549 5388 c-5 -18 -6 -38 -1 -34 7 8 12 36 6 36 -2 0 -4 -1 -5 -2z"/>
<path d="M7636 5279 c3 -10 1 -20 -5 -24 -16 -9 -13 -22 5 -29 14 -5 15 -4 5
8 -7 9 -8 17 -2 20 5 3 12 0 14 -6 3 -7 6 -8 6 -2 1 5 -6 19 -14 30 -11 14
-14 15 -9 3z"/>
<path d="M7708 5173 c7 -3 16 -2 19 1 4 3 -2 6 -13 5 -11 0 -14 -3 -6 -6z"/>
<path d="M7648 5163 c7 -3 16 -2 19 1 4 3 -2 6 -13 5 -11 0 -14 -3 -6 -6z"/>
<path d="M7770 5145 c-7 -9 -8 -15 -2 -15 5 0 12 7 16 15 3 8 4 15 2 15 -2 0
-9 -7 -16 -15z"/>
<path d="M7650 5145 c0 -7 39 -12 49 -5 7 4 -1 7 -18 8 -17 0 -31 -1 -31 -3z"/>
<path d="M7736 5125 c-3 -9 0 -15 9 -15 9 0 12 6 9 15 -4 8 -7 15 -9 15 -2 0
-5 -7 -9 -15z"/>
<path d="M7828 5050 c2 -17 9 -33 16 -37 16 -11 40 -10 48 1 9 13 -9 46 -25
46 -9 0 -9 -2 0 -8 9 -6 7 -11 -8 -20 -16 -10 -20 -10 -18 0 3 26 -1 48 -9 48
-5 0 -7 -14 -4 -30z"/>
<path d="M7797 5053 c-4 -3 -7 -11 -7 -17 0 -6 5 -5 12 2 6 6 9 14 7 17 -3 3
-9 2 -12 -2z"/>
<path d="M8003 5025 c0 -8 4 -15 9 -15 4 0 8 4 8 9 0 6 -4 12 -8 15 -5 3 -9
-1 -9 -9z"/>
<path d="M7918 5013 c7 -3 16 -2 19 1 4 3 -2 6 -13 5 -11 0 -14 -3 -6 -6z"/>
<path d="M7956 5011 c-4 -5 -2 -12 3 -15 5 -4 12 -2 15 3 4 5 2 12 -3 15 -5 4
-12 2 -15 -3z"/>
<path d="M8026 5001 c-3 -5 1 -14 9 -21 10 -9 15 -9 15 -1 0 6 -5 11 -11 11
-5 0 -7 5 -4 10 3 6 4 10 1 10 -3 0 -7 -4 -10 -9z"/>
<path d="M8090 4970 c0 -5 7 -7 15 -4 8 4 15 8 15 10 0 2 -7 4 -15 4 -8 0 -15
-4 -15 -10z"/>
<path d="M8135 4970 c3 -5 11 -10 16 -10 6 0 7 5 4 10 -3 6 -11 10 -16 10 -6
0 -7 -4 -4 -10z"/>
<path d="M8050 4960 c-13 -8 -13 -10 2 -10 9 0 20 5 23 10 8 13 -5 13 -25 0z"/>
<path d="M8355 4959 c-4 -6 -5 -12 -2 -15 2 -3 7 2 10 11 7 17 1 20 -8 4z"/>
<path d="M8075 4930 c3 -5 10 -10 16 -10 5 0 9 5 9 10 0 6 -7 10 -16 10 -8 0
-12 -4 -9 -10z"/>
<path d="M8317 4933 c-12 -12 -7 -19 12 -19 15 0 17 3 9 13 -12 15 -13 15 -21
6z"/>
<path d="M8360 4916 c0 -6 11 -12 25 -12 14 -1 25 3 25 10 0 6 -11 12 -25 12
-14 1 -25 -3 -25 -10z"/>
<path d="M1330 5970 c0 -5 5 -10 10 -10 6 0 10 5 10 10 0 6 -4 10 -10 10 -5 0
-10 -4 -10 -10z"/>
<path d="M4000 4894 c0 -1 6 -7 14 -13 10 -9 15 -8 19 2 3 8 -3 13 -14 13 -11
0 -19 -1 -19 -2z"/>
<path d="M4075 4840 c-3 -6 1 -7 9 -4 18 7 21 14 7 14 -6 0 -13 -4 -16 -10z"/>
<path d="M4040 4800 c0 -5 5 -10 11 -10 5 0 7 5 4 10 -3 6 -8 10 -11 10 -2 0
-4 -4 -4 -10z"/>
<path d="M4040 4778 c13 -14 49 -27 54 -20 3 5 0 9 -7 9 -7 0 -21 4 -32 8 -11
5 -18 6 -15 3z"/>
<path d="M4005 4760 c-3 -5 3 -10 15 -10 12 0 18 5 15 10 -3 6 -10 10 -15 10
-5 0 -12 -4 -15 -10z"/>
<path d="M4160 4571 c0 -5 5 -13 10 -16 6 -3 10 -2 10 4 0 5 -4 13 -10 16 -5
3 -10 2 -10 -4z"/>
<path d="M4225 4471 c-3 -5 0 -13 6 -17 7 -4 9 -3 5 4 -3 5 0 13 6 15 9 4 10
6 1 6 -6 1 -14 -3 -18 -8z"/>
<path d="M4250 4449 c0 -5 5 -7 10 -4 6 3 10 8 10 11 0 2 -4 4 -10 4 -5 0 -10
-5 -10 -11z"/>
<path d="M4516 4269 c3 -5 -2 -12 -10 -15 -16 -6 -12 -24 5 -24 6 0 7 5 4 10
-3 6 4 14 16 18 l23 9 -22 5 c-12 4 -19 2 -16 -3z"/>
<path d="M4565 4250 c3 -5 8 -10 11 -10 2 0 4 5 4 10 0 6 -5 10 -11 10 -5 0
-7 -4 -4 -10z"/>
<path d="M4740 4195 c-7 -9 -8 -15 -2 -15 5 0 12 7 16 15 3 8 4 15 2 15 -2 0
-9 -7 -16 -15z"/>
<path d="M5020 4150 c-9 -6 -10 -10 -3 -10 6 0 15 5 18 10 8 12 4 12 -15 0z"/>
<path d="M4892 4118 c2 -5 8 -9 13 -9 5 0 11 4 13 9 1 5 -4 9 -13 9 -9 0 -14
-4 -13 -9z"/>
<path d="M5145 4099 c-11 -17 1 -21 15 -4 8 9 8 15 2 15 -6 0 -14 -5 -17 -11z"/>
<path d="M5185 4100 c-3 -5 -1 -10 4 -10 6 0 11 5 11 10 0 6 -2 10 -4 10 -3 0
-8 -4 -11 -10z"/>
<path d="M1181 4834 c0 -11 3 -14 6 -6 3 7 2 16 -1 19 -3 4 -6 -2 -5 -13z"/>
<path d="M1216 4828 c4 -13 1 -18 -12 -18 -11 0 -15 -3 -9 -8 6 -4 16 -20 24
-37 12 -27 14 -28 20 -11 5 14 10 16 15 8 4 -7 13 -12 19 -12 7 0 6 4 -3 10
-13 9 -13 11 0 19 10 7 17 6 22 -2 5 -8 8 -8 8 -1 0 18 -12 24 -31 13 -15 -8
-19 -6 -19 6 0 9 4 13 10 10 6 -4 7 1 3 11 -5 13 -3 15 8 9 8 -5 11 -4 6 0
-13 15 -36 14 -30 -1 7 -20 -7 -17 -23 4 -13 16 -14 16 -8 0z"/>
<path d="M1260 4730 c0 -5 5 -10 11 -10 5 0 7 5 4 10 -3 6 -8 10 -11 10 -2 0
-4 -4 -4 -10z"/>
<path d="M1321 4724 c0 -11 3 -14 6 -6 3 7 2 16 -1 19 -3 4 -6 -2 -5 -13z"/>
<path d="M1680 4358 c-12 -22 -12 -22 6 -6 10 10 15 20 12 24 -4 3 -12 -5 -18
-18z"/>
<path d="M1779 4139 c-7 -4 -4 -9 6 -13 9 -3 23 1 31 8 12 13 12 15 -6 13 -12
-1 -26 -4 -31 -8z"/>
<path d="M1870 4090 c0 -5 5 -10 11 -10 5 0 7 5 4 10 -3 6 -8 10 -11 10 -2 0
-4 -4 -4 -10z"/>
<path d="M1882 4058 c-17 -17 -15 -26 11 -38 21 -11 22 -11 2 5 -17 13 -18 17
-5 25 8 5 12 11 9 14 -3 3 -11 0 -17 -6z"/>
<path d="M2147 3766 c-15 -12 -16 -15 -2 -26 9 -7 18 -10 22 -6 3 3 1 6 -5 6
-20 0 -13 20 11 30 12 5 15 9 7 9 -8 0 -23 -6 -33 -13z"/>
<path d="M2863 3687 c-3 -4 -2 -11 1 -14 3 -4 6 -1 6 5 0 6 6 9 14 6 8 -3 16
-2 19 3 3 5 -3 9 -14 9 -11 0 -23 -4 -26 -9z"/>
<path d="M2951 3676 c-8 -13 -10 -30 -6 -37 6 -8 4 -10 -4 -5 -7 5 -16 18 -21
30 -7 18 -9 18 -9 3 -1 -20 21 -47 39 -47 7 0 10 12 8 28 -2 17 2 26 9 25 7
-2 10 4 7 12 -8 19 -8 19 -23 -9z"/>
<path d="M2388 3673 c6 -2 18 -2 25 0 6 3 1 5 -13 5 -14 0 -19 -2 -12 -5z"/>
<path d="M6721 4358 c-1 -25 15 -30 30 -11 12 15 12 16 -3 10 -9 -3 -19 -1
-22 6 -2 7 -5 5 -5 -5z"/>
<path d="M6796 4248 c3 -5 10 -6 15 -3 13 9 11 12 -6 12 -8 0 -12 -4 -9 -9z"/>
<path d="M7781 3983 c-1 -17 16 -25 25 -12 4 7 3 9 -4 5 -5 -3 -13 0 -15 6 -4
9 -6 10 -6 1z"/>
<path d="M7840 3930 c0 -6 7 -10 15 -10 8 0 15 2 15 4 0 2 -7 6 -15 10 -8 3
-15 1 -15 -4z"/>
<path d="M3405 3340 c-8 -13 -1 -24 14 -19 6 3 7 10 2 18 -6 10 -10 10 -16 1z"/>
<path d="M3576 3133 c-6 -14 -5 -15 5 -6 7 7 10 15 7 18 -3 3 -9 -2 -12 -12z"/>
<path d="M3675 3110 c10 -11 20 -20 23 -20 3 0 -3 9 -13 20 -10 11 -20 20 -23
20 -3 0 3 -9 13 -20z"/>
<path d="M3710 3110 c0 -6 7 -10 15 -10 8 0 15 2 15 4 0 2 -7 6 -15 10 -8 3
-15 1 -15 -4z"/>
<path d="M3877 3059 c6 -22 23 -26 23 -5 0 8 -6 16 -14 19 -10 4 -12 0 -9 -14z"/>
<path d="M4049 3058 c-6 -21 -5 -37 2 -32 5 3 7 9 4 14 -3 4 1 11 7 13 10 4
10 6 1 6 -7 1 -13 0 -14 -1z"/>
<path d="M3966 3042 c-3 -5 1 -9 9 -9 8 0 12 4 9 9 -3 4 -7 8 -9 8 -2 0 -6 -4
-9 -8z"/>
<path d="M4035 2991 c-3 -5 -1 -12 5 -16 5 -3 10 1 10 9 0 18 -6 21 -15 7z"/>
</g>
</svg>
